<mxfile host="Electron" agent="Mozilla/5.0 (Macintosh; Intel Mac OS X 10_15_7) AppleWebKit/537.36 (KHTML, like Gecko) draw.io/28.0.6 Chrome/138.0.7204.100 Electron/37.2.3 Safari/537.36" version="28.0.6">
  <diagram name="Page-1" id="o7vMPBndVuw8qitjOjHM">
    <mxGraphModel dx="998" dy="1812" grid="1" gridSize="10" guides="1" tooltips="1" connect="1" arrows="1" fold="1" page="1" pageScale="1" pageWidth="827" pageHeight="1169" math="0" shadow="0">
      <root>
        <mxCell id="0" />
        <mxCell id="1" parent="0" />
        <mxCell id="pMqvErgknjrirHJc3UkE-22" value="" style="edgeStyle=orthogonalEdgeStyle;rounded=0;orthogonalLoop=1;jettySize=auto;html=1;" parent="1" source="pMqvErgknjrirHJc3UkE-1" target="pMqvErgknjrirHJc3UkE-4" edge="1">
          <mxGeometry relative="1" as="geometry" />
        </mxCell>
        <mxCell id="pMqvErgknjrirHJc3UkE-1" value="SOR 1" style="rounded=0;whiteSpace=wrap;html=1;" parent="1" vertex="1">
          <mxGeometry x="50" y="150" width="120" height="60" as="geometry" />
        </mxCell>
        <mxCell id="pMqvErgknjrirHJc3UkE-23" value="" style="edgeStyle=orthogonalEdgeStyle;rounded=0;orthogonalLoop=1;jettySize=auto;html=1;" parent="1" source="pMqvErgknjrirHJc3UkE-2" target="pMqvErgknjrirHJc3UkE-6" edge="1">
          <mxGeometry relative="1" as="geometry" />
        </mxCell>
        <mxCell id="pMqvErgknjrirHJc3UkE-2" value="SOR 2" style="rounded=0;whiteSpace=wrap;html=1;" parent="1" vertex="1">
          <mxGeometry x="50" y="250" width="120" height="60" as="geometry" />
        </mxCell>
        <mxCell id="pMqvErgknjrirHJc3UkE-24" value="" style="edgeStyle=orthogonalEdgeStyle;rounded=0;orthogonalLoop=1;jettySize=auto;html=1;" parent="1" source="pMqvErgknjrirHJc3UkE-3" target="pMqvErgknjrirHJc3UkE-5" edge="1">
          <mxGeometry relative="1" as="geometry" />
        </mxCell>
        <mxCell id="pMqvErgknjrirHJc3UkE-3" value="SOR 3" style="rounded=0;whiteSpace=wrap;html=1;" parent="1" vertex="1">
          <mxGeometry x="50" y="350" width="120" height="60" as="geometry" />
        </mxCell>
        <mxCell id="pMqvErgknjrirHJc3UkE-19" style="edgeStyle=orthogonalEdgeStyle;rounded=0;orthogonalLoop=1;jettySize=auto;html=1;entryX=0;entryY=0.5;entryDx=0;entryDy=0;" parent="1" source="pMqvErgknjrirHJc3UkE-4" target="pMqvErgknjrirHJc3UkE-7" edge="1">
          <mxGeometry relative="1" as="geometry" />
        </mxCell>
        <mxCell id="pMqvErgknjrirHJc3UkE-4" value="ETL 1" style="shape=process;whiteSpace=wrap;html=1;backgroundOutline=1;" parent="1" vertex="1">
          <mxGeometry x="240" y="150" width="120" height="60" as="geometry" />
        </mxCell>
        <mxCell id="pMqvErgknjrirHJc3UkE-21" style="edgeStyle=orthogonalEdgeStyle;rounded=0;orthogonalLoop=1;jettySize=auto;html=1;entryX=0;entryY=0.5;entryDx=0;entryDy=0;" parent="1" source="pMqvErgknjrirHJc3UkE-5" target="pMqvErgknjrirHJc3UkE-7" edge="1">
          <mxGeometry relative="1" as="geometry" />
        </mxCell>
        <mxCell id="pMqvErgknjrirHJc3UkE-5" value="ETL 3" style="shape=process;whiteSpace=wrap;html=1;backgroundOutline=1;" parent="1" vertex="1">
          <mxGeometry x="240" y="350" width="120" height="60" as="geometry" />
        </mxCell>
        <mxCell id="pMqvErgknjrirHJc3UkE-20" style="edgeStyle=orthogonalEdgeStyle;rounded=0;orthogonalLoop=1;jettySize=auto;html=1;entryX=0;entryY=0.5;entryDx=0;entryDy=0;" parent="1" source="pMqvErgknjrirHJc3UkE-6" target="pMqvErgknjrirHJc3UkE-7" edge="1">
          <mxGeometry relative="1" as="geometry" />
        </mxCell>
        <mxCell id="pMqvErgknjrirHJc3UkE-6" value="ETL 2" style="shape=process;whiteSpace=wrap;html=1;backgroundOutline=1;" parent="1" vertex="1">
          <mxGeometry x="240" y="250" width="120" height="60" as="geometry" />
        </mxCell>
        <mxCell id="Kfd8tbkBQcZjYO2IM3YY-15" style="edgeStyle=orthogonalEdgeStyle;rounded=0;orthogonalLoop=1;jettySize=auto;html=1;entryX=0;entryY=0.5;entryDx=0;entryDy=0;" parent="1" source="pMqvErgknjrirHJc3UkE-7" target="Kfd8tbkBQcZjYO2IM3YY-4" edge="1">
          <mxGeometry relative="1" as="geometry" />
        </mxCell>
        <mxCell id="Kfd8tbkBQcZjYO2IM3YY-41" style="edgeStyle=orthogonalEdgeStyle;rounded=0;orthogonalLoop=1;jettySize=auto;html=1;" parent="1" source="pMqvErgknjrirHJc3UkE-7" target="Kfd8tbkBQcZjYO2IM3YY-40" edge="1">
          <mxGeometry relative="1" as="geometry" />
        </mxCell>
        <mxCell id="pMqvErgknjrirHJc3UkE-7" value="Finacle Data Lake" style="swimlane;whiteSpace=wrap;html=1;" parent="1" vertex="1">
          <mxGeometry x="420" y="60" width="200" height="440" as="geometry" />
        </mxCell>
        <mxCell id="pMqvErgknjrirHJc3UkE-8" value="Customer" style="swimlane;fontStyle=0;childLayout=stackLayout;horizontal=1;startSize=30;horizontalStack=0;resizeParent=1;resizeParentMax=0;resizeLast=0;collapsible=1;marginBottom=0;whiteSpace=wrap;html=1;" parent="pMqvErgknjrirHJc3UkE-7" vertex="1">
          <mxGeometry x="50" y="60" width="100" height="90" as="geometry" />
        </mxCell>
        <mxCell id="pMqvErgknjrirHJc3UkE-9" value="Item 1" style="text;strokeColor=none;fillColor=none;align=left;verticalAlign=middle;spacingLeft=4;spacingRight=4;overflow=hidden;points=[[0,0.5],[1,0.5]];portConstraint=eastwest;rotatable=0;whiteSpace=wrap;html=1;" parent="pMqvErgknjrirHJc3UkE-8" vertex="1">
          <mxGeometry y="30" width="100" height="30" as="geometry" />
        </mxCell>
        <mxCell id="pMqvErgknjrirHJc3UkE-10" value="Item 2" style="text;strokeColor=none;fillColor=none;align=left;verticalAlign=middle;spacingLeft=4;spacingRight=4;overflow=hidden;points=[[0,0.5],[1,0.5]];portConstraint=eastwest;rotatable=0;whiteSpace=wrap;html=1;" parent="pMqvErgknjrirHJc3UkE-8" vertex="1">
          <mxGeometry y="60" width="100" height="30" as="geometry" />
        </mxCell>
        <mxCell id="pMqvErgknjrirHJc3UkE-12" value="Account" style="swimlane;fontStyle=0;childLayout=stackLayout;horizontal=1;startSize=30;horizontalStack=0;resizeParent=1;resizeParentMax=0;resizeLast=0;collapsible=1;marginBottom=0;whiteSpace=wrap;html=1;" parent="pMqvErgknjrirHJc3UkE-7" vertex="1">
          <mxGeometry x="50" y="180" width="100" height="90" as="geometry" />
        </mxCell>
        <mxCell id="pMqvErgknjrirHJc3UkE-13" value="Item 1" style="text;strokeColor=none;fillColor=none;align=left;verticalAlign=middle;spacingLeft=4;spacingRight=4;overflow=hidden;points=[[0,0.5],[1,0.5]];portConstraint=eastwest;rotatable=0;whiteSpace=wrap;html=1;" parent="pMqvErgknjrirHJc3UkE-12" vertex="1">
          <mxGeometry y="30" width="100" height="30" as="geometry" />
        </mxCell>
        <mxCell id="pMqvErgknjrirHJc3UkE-15" value="Item 3" style="text;strokeColor=none;fillColor=none;align=left;verticalAlign=middle;spacingLeft=4;spacingRight=4;overflow=hidden;points=[[0,0.5],[1,0.5]];portConstraint=eastwest;rotatable=0;whiteSpace=wrap;html=1;" parent="pMqvErgknjrirHJc3UkE-12" vertex="1">
          <mxGeometry y="60" width="100" height="30" as="geometry" />
        </mxCell>
        <mxCell id="Kfd8tbkBQcZjYO2IM3YY-1" value="Transaction" style="swimlane;fontStyle=0;childLayout=stackLayout;horizontal=1;startSize=30;horizontalStack=0;resizeParent=1;resizeParentMax=0;resizeLast=0;collapsible=1;marginBottom=0;whiteSpace=wrap;html=1;" parent="pMqvErgknjrirHJc3UkE-7" vertex="1">
          <mxGeometry x="50" y="300" width="100" height="90" as="geometry" />
        </mxCell>
        <mxCell id="Kfd8tbkBQcZjYO2IM3YY-2" value="Item 1" style="text;strokeColor=none;fillColor=none;align=left;verticalAlign=middle;spacingLeft=4;spacingRight=4;overflow=hidden;points=[[0,0.5],[1,0.5]];portConstraint=eastwest;rotatable=0;whiteSpace=wrap;html=1;" parent="Kfd8tbkBQcZjYO2IM3YY-1" vertex="1">
          <mxGeometry y="30" width="100" height="30" as="geometry" />
        </mxCell>
        <mxCell id="Kfd8tbkBQcZjYO2IM3YY-3" value="Item 3" style="text;strokeColor=none;fillColor=none;align=left;verticalAlign=middle;spacingLeft=4;spacingRight=4;overflow=hidden;points=[[0,0.5],[1,0.5]];portConstraint=eastwest;rotatable=0;whiteSpace=wrap;html=1;" parent="Kfd8tbkBQcZjYO2IM3YY-1" vertex="1">
          <mxGeometry y="60" width="100" height="30" as="geometry" />
        </mxCell>
        <mxCell id="Kfd8tbkBQcZjYO2IM3YY-52" value="" style="html=1;verticalLabelPosition=bottom;labelBackgroundColor=#ffffff;verticalAlign=top;shadow=0;dashed=0;strokeWidth=2;shape=mxgraph.ios7.misc.check;strokeColor=#0080f0;" parent="pMqvErgknjrirHJc3UkE-7" vertex="1">
          <mxGeometry x="160" y="60" width="10" height="8" as="geometry" />
        </mxCell>
        <mxCell id="Kfd8tbkBQcZjYO2IM3YY-54" value="" style="html=1;verticalLabelPosition=bottom;labelBackgroundColor=#ffffff;verticalAlign=top;shadow=0;dashed=0;strokeWidth=2;shape=mxgraph.ios7.misc.check;strokeColor=#0080f0;" parent="pMqvErgknjrirHJc3UkE-7" vertex="1">
          <mxGeometry x="160" y="180" width="10" height="10" as="geometry" />
        </mxCell>
        <mxCell id="Kfd8tbkBQcZjYO2IM3YY-16" style="edgeStyle=orthogonalEdgeStyle;rounded=0;orthogonalLoop=1;jettySize=auto;html=1;entryX=0;entryY=0.5;entryDx=0;entryDy=0;" parent="1" source="Kfd8tbkBQcZjYO2IM3YY-4" target="Kfd8tbkBQcZjYO2IM3YY-5" edge="1">
          <mxGeometry relative="1" as="geometry" />
        </mxCell>
        <mxCell id="Kfd8tbkBQcZjYO2IM3YY-4" value="Analytics ETL 1" style="shape=process;whiteSpace=wrap;html=1;backgroundOutline=1;" parent="1" vertex="1">
          <mxGeometry x="720" y="140" width="120" height="60" as="geometry" />
        </mxCell>
        <mxCell id="Kfd8tbkBQcZjYO2IM3YY-5" value="Analytics App 1" style="swimlane;whiteSpace=wrap;html=1;startSize=23;" parent="1" vertex="1">
          <mxGeometry x="980" y="-35" width="620" height="410" as="geometry" />
        </mxCell>
        <mxCell id="_FaIDGt9qHq3RFplHSfq-1" value="" style="image;aspect=fixed;html=1;points=[];align=center;fontSize=12;image=img/lib/azure2/general/Dashboard2.svg;" vertex="1" parent="Kfd8tbkBQcZjYO2IM3YY-5">
          <mxGeometry x="520" y="186" width="68" height="48" as="geometry" />
        </mxCell>
        <mxCell id="_FaIDGt9qHq3RFplHSfq-3" value="" style="edgeStyle=orthogonalEdgeStyle;rounded=0;orthogonalLoop=1;jettySize=auto;html=1;" edge="1" parent="Kfd8tbkBQcZjYO2IM3YY-5" source="_FaIDGt9qHq3RFplHSfq-2" target="_FaIDGt9qHq3RFplHSfq-1">
          <mxGeometry relative="1" as="geometry" />
        </mxCell>
        <mxCell id="_FaIDGt9qHq3RFplHSfq-2" value="Analytics Schema - Snowflake Schema" style="swimlane;whiteSpace=wrap;html=1;" vertex="1" parent="Kfd8tbkBQcZjYO2IM3YY-5">
          <mxGeometry x="20" y="35" width="460" height="350" as="geometry" />
        </mxCell>
        <mxCell id="Kfd8tbkBQcZjYO2IM3YY-21" style="edgeStyle=orthogonalEdgeStyle;rounded=0;orthogonalLoop=1;jettySize=auto;html=1;entryX=0.25;entryY=0;entryDx=0;entryDy=0;" parent="_FaIDGt9qHq3RFplHSfq-2" source="Kfd8tbkBQcZjYO2IM3YY-6" target="Kfd8tbkBQcZjYO2IM3YY-12" edge="1">
          <mxGeometry relative="1" as="geometry" />
        </mxCell>
        <mxCell id="Kfd8tbkBQcZjYO2IM3YY-6" value="Dim Customer" style="swimlane;fontStyle=0;childLayout=stackLayout;horizontal=1;startSize=30;horizontalStack=0;resizeParent=1;resizeParentMax=0;resizeLast=0;collapsible=1;marginBottom=0;whiteSpace=wrap;html=1;" parent="_FaIDGt9qHq3RFplHSfq-2" vertex="1">
          <mxGeometry x="25" y="45" width="100" height="90" as="geometry" />
        </mxCell>
        <mxCell id="Kfd8tbkBQcZjYO2IM3YY-7" value="Item 1" style="text;strokeColor=none;fillColor=none;align=left;verticalAlign=middle;spacingLeft=4;spacingRight=4;overflow=hidden;points=[[0,0.5],[1,0.5]];portConstraint=eastwest;rotatable=0;whiteSpace=wrap;html=1;" parent="Kfd8tbkBQcZjYO2IM3YY-6" vertex="1">
          <mxGeometry y="30" width="100" height="30" as="geometry" />
        </mxCell>
        <mxCell id="Kfd8tbkBQcZjYO2IM3YY-8" value="Item 2" style="text;strokeColor=none;fillColor=none;align=left;verticalAlign=middle;spacingLeft=4;spacingRight=4;overflow=hidden;points=[[0,0.5],[1,0.5]];portConstraint=eastwest;rotatable=0;whiteSpace=wrap;html=1;" parent="Kfd8tbkBQcZjYO2IM3YY-6" vertex="1">
          <mxGeometry y="60" width="100" height="30" as="geometry" />
        </mxCell>
        <mxCell id="Kfd8tbkBQcZjYO2IM3YY-22" style="edgeStyle=orthogonalEdgeStyle;rounded=0;orthogonalLoop=1;jettySize=auto;html=1;entryX=0.75;entryY=0;entryDx=0;entryDy=0;" parent="_FaIDGt9qHq3RFplHSfq-2" source="Kfd8tbkBQcZjYO2IM3YY-9" target="Kfd8tbkBQcZjYO2IM3YY-12" edge="1">
          <mxGeometry relative="1" as="geometry" />
        </mxCell>
        <mxCell id="Kfd8tbkBQcZjYO2IM3YY-9" value="Dim Account" style="swimlane;fontStyle=0;childLayout=stackLayout;horizontal=1;startSize=30;horizontalStack=0;resizeParent=1;resizeParentMax=0;resizeLast=0;collapsible=1;marginBottom=0;whiteSpace=wrap;html=1;" parent="_FaIDGt9qHq3RFplHSfq-2" vertex="1">
          <mxGeometry x="295" y="45" width="100" height="90" as="geometry" />
        </mxCell>
        <mxCell id="Kfd8tbkBQcZjYO2IM3YY-10" value="Item 1" style="text;strokeColor=none;fillColor=none;align=left;verticalAlign=middle;spacingLeft=4;spacingRight=4;overflow=hidden;points=[[0,0.5],[1,0.5]];portConstraint=eastwest;rotatable=0;whiteSpace=wrap;html=1;" parent="Kfd8tbkBQcZjYO2IM3YY-9" vertex="1">
          <mxGeometry y="30" width="100" height="30" as="geometry" />
        </mxCell>
        <mxCell id="Kfd8tbkBQcZjYO2IM3YY-11" value="Item 3" style="text;strokeColor=none;fillColor=none;align=left;verticalAlign=middle;spacingLeft=4;spacingRight=4;overflow=hidden;points=[[0,0.5],[1,0.5]];portConstraint=eastwest;rotatable=0;whiteSpace=wrap;html=1;" parent="Kfd8tbkBQcZjYO2IM3YY-9" vertex="1">
          <mxGeometry y="60" width="100" height="30" as="geometry" />
        </mxCell>
        <mxCell id="Kfd8tbkBQcZjYO2IM3YY-38" style="edgeStyle=orthogonalEdgeStyle;rounded=0;orthogonalLoop=1;jettySize=auto;html=1;dashed=1;dashPattern=8 8;" parent="_FaIDGt9qHq3RFplHSfq-2" source="Kfd8tbkBQcZjYO2IM3YY-12" target="Kfd8tbkBQcZjYO2IM3YY-29" edge="1">
          <mxGeometry relative="1" as="geometry" />
        </mxCell>
        <mxCell id="Kfd8tbkBQcZjYO2IM3YY-12" value="Fact Transaction" style="swimlane;fontStyle=0;childLayout=stackLayout;horizontal=1;startSize=30;horizontalStack=0;resizeParent=1;resizeParentMax=0;resizeLast=0;collapsible=1;marginBottom=0;whiteSpace=wrap;html=1;" parent="_FaIDGt9qHq3RFplHSfq-2" vertex="1">
          <mxGeometry x="160" y="145" width="100" height="90" as="geometry" />
        </mxCell>
        <mxCell id="Kfd8tbkBQcZjYO2IM3YY-13" value="Item 1" style="text;strokeColor=none;fillColor=none;align=left;verticalAlign=middle;spacingLeft=4;spacingRight=4;overflow=hidden;points=[[0,0.5],[1,0.5]];portConstraint=eastwest;rotatable=0;whiteSpace=wrap;html=1;" parent="Kfd8tbkBQcZjYO2IM3YY-12" vertex="1">
          <mxGeometry y="30" width="100" height="30" as="geometry" />
        </mxCell>
        <mxCell id="Kfd8tbkBQcZjYO2IM3YY-14" value="Item 3" style="text;strokeColor=none;fillColor=none;align=left;verticalAlign=middle;spacingLeft=4;spacingRight=4;overflow=hidden;points=[[0,0.5],[1,0.5]];portConstraint=eastwest;rotatable=0;whiteSpace=wrap;html=1;" parent="Kfd8tbkBQcZjYO2IM3YY-12" vertex="1">
          <mxGeometry y="60" width="100" height="30" as="geometry" />
        </mxCell>
        <mxCell id="Kfd8tbkBQcZjYO2IM3YY-28" style="edgeStyle=orthogonalEdgeStyle;rounded=0;orthogonalLoop=1;jettySize=auto;html=1;" parent="_FaIDGt9qHq3RFplHSfq-2" source="Kfd8tbkBQcZjYO2IM3YY-23" target="Kfd8tbkBQcZjYO2IM3YY-12" edge="1">
          <mxGeometry relative="1" as="geometry" />
        </mxCell>
        <mxCell id="Kfd8tbkBQcZjYO2IM3YY-23" value="Dim Period" style="swimlane;fontStyle=0;childLayout=stackLayout;horizontal=1;startSize=30;horizontalStack=0;resizeParent=1;resizeParentMax=0;resizeLast=0;collapsible=1;marginBottom=0;whiteSpace=wrap;html=1;" parent="_FaIDGt9qHq3RFplHSfq-2" vertex="1">
          <mxGeometry x="25" y="245" width="100" height="90" as="geometry" />
        </mxCell>
        <mxCell id="Kfd8tbkBQcZjYO2IM3YY-24" value="Item 1" style="text;strokeColor=none;fillColor=none;align=left;verticalAlign=middle;spacingLeft=4;spacingRight=4;overflow=hidden;points=[[0,0.5],[1,0.5]];portConstraint=eastwest;rotatable=0;whiteSpace=wrap;html=1;" parent="Kfd8tbkBQcZjYO2IM3YY-23" vertex="1">
          <mxGeometry y="30" width="100" height="30" as="geometry" />
        </mxCell>
        <mxCell id="Kfd8tbkBQcZjYO2IM3YY-25" value="Item 2" style="text;strokeColor=none;fillColor=none;align=left;verticalAlign=middle;spacingLeft=4;spacingRight=4;overflow=hidden;points=[[0,0.5],[1,0.5]];portConstraint=eastwest;rotatable=0;whiteSpace=wrap;html=1;" parent="Kfd8tbkBQcZjYO2IM3YY-23" vertex="1">
          <mxGeometry y="60" width="100" height="30" as="geometry" />
        </mxCell>
        <mxCell id="Kfd8tbkBQcZjYO2IM3YY-29" value="Fact Agg Transaction" style="swimlane;fontStyle=0;childLayout=stackLayout;horizontal=1;startSize=30;horizontalStack=0;resizeParent=1;resizeParentMax=0;resizeLast=0;collapsible=1;marginBottom=0;whiteSpace=wrap;html=1;" parent="_FaIDGt9qHq3RFplHSfq-2" vertex="1">
          <mxGeometry x="335" y="235" width="100" height="90" as="geometry" />
        </mxCell>
        <mxCell id="Kfd8tbkBQcZjYO2IM3YY-30" value="Item 1" style="text;strokeColor=none;fillColor=none;align=left;verticalAlign=middle;spacingLeft=4;spacingRight=4;overflow=hidden;points=[[0,0.5],[1,0.5]];portConstraint=eastwest;rotatable=0;whiteSpace=wrap;html=1;" parent="Kfd8tbkBQcZjYO2IM3YY-29" vertex="1">
          <mxGeometry y="30" width="100" height="30" as="geometry" />
        </mxCell>
        <mxCell id="Kfd8tbkBQcZjYO2IM3YY-31" value="Item 3" style="text;strokeColor=none;fillColor=none;align=left;verticalAlign=middle;spacingLeft=4;spacingRight=4;overflow=hidden;points=[[0,0.5],[1,0.5]];portConstraint=eastwest;rotatable=0;whiteSpace=wrap;html=1;" parent="Kfd8tbkBQcZjYO2IM3YY-29" vertex="1">
          <mxGeometry y="60" width="100" height="30" as="geometry" />
        </mxCell>
        <mxCell id="_FaIDGt9qHq3RFplHSfq-4" value="Visualisation App" style="text;html=1;align=center;verticalAlign=middle;resizable=0;points=[];autosize=1;strokeColor=none;fillColor=none;" vertex="1" parent="Kfd8tbkBQcZjYO2IM3YY-5">
          <mxGeometry x="499" y="155" width="110" height="30" as="geometry" />
        </mxCell>
        <mxCell id="Kfd8tbkBQcZjYO2IM3YY-37" value="Analytics App 2" style="swimlane;whiteSpace=wrap;html=1;" parent="1" vertex="1">
          <mxGeometry x="980" y="450" width="200" height="200" as="geometry" />
        </mxCell>
        <mxCell id="Kfd8tbkBQcZjYO2IM3YY-42" style="edgeStyle=orthogonalEdgeStyle;rounded=0;orthogonalLoop=1;jettySize=auto;html=1;entryX=0;entryY=0.5;entryDx=0;entryDy=0;" parent="1" source="Kfd8tbkBQcZjYO2IM3YY-40" target="Kfd8tbkBQcZjYO2IM3YY-37" edge="1">
          <mxGeometry relative="1" as="geometry" />
        </mxCell>
        <mxCell id="Kfd8tbkBQcZjYO2IM3YY-40" value="Analytics ETL 1" style="shape=process;whiteSpace=wrap;html=1;backgroundOutline=1;" parent="1" vertex="1">
          <mxGeometry x="720" y="380" width="120" height="60" as="geometry" />
        </mxCell>
        <mxCell id="Kfd8tbkBQcZjYO2IM3YY-43" value="" style="html=1;verticalLabelPosition=bottom;labelBackgroundColor=#ffffff;verticalAlign=top;shadow=0;dashed=0;strokeWidth=2;shape=mxgraph.ios7.misc.check;strokeColor=#0080f0;" parent="1" vertex="1">
          <mxGeometry x="155" y="154" width="10" height="8" as="geometry" />
        </mxCell>
        <mxCell id="Kfd8tbkBQcZjYO2IM3YY-44" value="" style="html=1;verticalLabelPosition=bottom;labelBackgroundColor=#ffffff;verticalAlign=top;shadow=0;dashed=0;strokeWidth=2;shape=mxgraph.ios7.misc.check;strokeColor=#0080f0;" parent="1" vertex="1">
          <mxGeometry x="157" y="254" width="10" height="8" as="geometry" />
        </mxCell>
        <mxCell id="Kfd8tbkBQcZjYO2IM3YY-46" value="" style="html=1;verticalLabelPosition=bottom;labelBackgroundColor=#ffffff;verticalAlign=top;shadow=0;dashed=0;strokeWidth=2;shape=mxgraph.ios7.misc.check;strokeColor=#0080f0;" parent="1" vertex="1">
          <mxGeometry x="156" y="353" width="10" height="8" as="geometry" />
        </mxCell>
        <mxCell id="Kfd8tbkBQcZjYO2IM3YY-47" value="" style="html=1;verticalLabelPosition=bottom;labelBackgroundColor=#ffffff;verticalAlign=top;shadow=0;dashed=0;strokeWidth=2;shape=mxgraph.ios7.misc.check;strokeColor=#0080f0;" parent="1" vertex="1">
          <mxGeometry x="330" y="154.5" width="10" height="8" as="geometry" />
        </mxCell>
        <mxCell id="Kfd8tbkBQcZjYO2IM3YY-48" value="" style="html=1;verticalLabelPosition=bottom;labelBackgroundColor=#ffffff;verticalAlign=top;shadow=0;dashed=0;strokeWidth=2;shape=mxgraph.ios7.misc.check;strokeColor=#0080f0;" parent="1" vertex="1">
          <mxGeometry x="332" y="254.5" width="10" height="8" as="geometry" />
        </mxCell>
        <mxCell id="Kfd8tbkBQcZjYO2IM3YY-49" value="" style="html=1;verticalLabelPosition=bottom;labelBackgroundColor=#ffffff;verticalAlign=top;shadow=0;dashed=0;strokeWidth=2;shape=mxgraph.ios7.misc.check;strokeColor=#0080f0;" parent="1" vertex="1">
          <mxGeometry x="331" y="353.5" width="10" height="8" as="geometry" />
        </mxCell>
        <mxCell id="Kfd8tbkBQcZjYO2IM3YY-55" value="" style="html=1;verticalLabelPosition=bottom;labelBackgroundColor=#ffffff;verticalAlign=top;shadow=0;dashed=0;strokeWidth=2;shape=mxgraph.ios7.misc.check;strokeColor=#0080f0;" parent="1" vertex="1">
          <mxGeometry x="580" y="360" width="10" height="8" as="geometry" />
        </mxCell>
      </root>
    </mxGraphModel>
  </diagram>
</mxfile>
